<?xml version="1.0" standalone="no"?>
<!DOCTYPE svg PUBLIC "-//W3C//DTD SVG 20010904//EN"
 "http://www.w3.org/TR/2001/REC-SVG-20010904/DTD/svg10.dtd">
<svg version="1.0" xmlns="http://www.w3.org/2000/svg"
 width="200.000000pt" height="200.000000pt" viewBox="0 0 200.000000 200.000000"
 preserveAspectRatio="xMidYMid meet">

<g transform="translate(0.000000,200.000000) scale(0.100000,-0.100000)"
fill="#000000" stroke="none">
<path d="M491 1154 c0 -11 10 -31 23 -43 23 -22 25 -22 34 -4 14 26 -3 56 -18
33 -7 -11 -10 -11 -10 -2 0 7 -4 11 -9 7 -5 -3 -12 3 -14 12 -4 15 -5 14 -6
-3z"/>
<path d="M401 988 c-69 -141 -111 -239 -111 -259 0 -16 92 -6 101 11 12 21 69
150 69 155 0 2 12 30 27 62 41 91 46 124 21 150 -12 13 -25 23 -29 23 -5 0
-39 -64 -78 -142z"/>
</g>
</svg>
